<svg width="24" height="24" viewBox="0 0 24 24" fill="none" xmlns="http://www.w3.org/2000/svg">
<path d="M16.5469 21.0937C16.4545 21.0938 16.3631 21.0756 16.2777 21.0403C16.1924 21.005 16.1149 20.9532 16.0495 20.8879L7.38281 12.2208C7.251 12.0889 7.17695 11.9101 7.17695 11.7236C7.17695 11.5372 7.251 11.3584 7.38281 11.2265L16.0495 2.55935C16.1148 2.49403 16.1923 2.44222 16.2776 2.40686C16.3629 2.3715 16.4544 2.35329 16.5467 2.35327C16.6391 2.35325 16.7305 2.37142 16.8158 2.40673C16.9011 2.44205 16.9787 2.49383 17.044 2.55911C17.1093 2.62439 17.1611 2.7019 17.1965 2.78721C17.2318 2.87251 17.25 2.96395 17.2501 3.05629C17.2501 3.14863 17.2319 3.24008 17.1966 3.3254C17.1613 3.41072 17.1095 3.48825 17.0442 3.55357L8.87438 11.7234L17.0442 19.8933C17.1426 19.9916 17.2096 20.1169 17.2368 20.2533C17.2639 20.3898 17.25 20.5312 17.1968 20.6597C17.1435 20.7882 17.0534 20.8981 16.9377 20.9753C16.822 21.0526 16.686 21.0938 16.5469 21.0937Z" fill="black"/>
</svg>
