<svg width="24" height="24" viewBox="0 0 24 24" fill="none" xmlns="http://www.w3.org/2000/svg">
<path d="M0 2.4C0 1.08 1.08 0 2.4 0H21.6C22.2365 0 22.847 0.252856 23.2971 0.702944C23.7471 1.15303 24 1.76348 24 2.4V21.6C24 22.2365 23.7471 22.847 23.2971 23.2971C22.847 23.7471 22.2365 24 21.6 24H2.4C1.76348 24 1.15303 23.7471 0.702944 23.2971C0.252856 22.847 0 22.2365 0 21.6V2.4ZM8.4 7.2V9.6C8.4 10.5548 8.77929 11.4705 9.45442 12.1456C10.1295 12.8207 11.0452 13.2 12 13.2C12.9548 13.2 13.8705 12.8207 14.5456 12.1456C15.2207 11.4705 15.6 10.5548 15.6 9.6V7.2C15.6 6.24522 15.2207 5.32955 14.5456 4.65442C13.8705 3.97929 12.9548 3.6 12 3.6C11.0452 3.6 10.1295 3.97929 9.45442 4.65442C8.77929 5.32955 8.4 6.24522 8.4 7.2ZM21.6 18.168C18.6823 16.4807 15.3704 15.5947 12 15.6C8.508 15.6 5.22 16.536 2.4 18.168V21.6H21.6V18.168Z" fill="black"/>
</svg>
