<svg width="36" height="36" viewBox="0 0 36 36" fill="none" xmlns="http://www.w3.org/2000/svg">
<path d="M18 10.5C19.6569 10.5 21 9.15685 21 7.5C21 5.84315 19.6569 4.5 18 4.5C16.3431 4.5 15 5.84315 15 7.5C15 9.15685 16.3431 10.5 18 10.5Z" fill="#C0C0C0"/>
<path d="M18 31.5C19.6569 31.5 21 30.1569 21 28.5C21 26.8431 19.6569 25.5 18 25.5C16.3431 25.5 15 26.8431 15 28.5C15 30.1569 16.3431 31.5 18 31.5Z" fill="#C0C0C0"/>
<path d="M18 21C19.6569 21 21 19.6569 21 18C21 16.3431 19.6569 15 18 15C16.3431 15 15 16.3431 15 18C15 19.6569 16.3431 21 18 21Z" fill="#C0C0C0"/>
</svg>
